# xmcd
#
# Track frame offsets:
#	150
#	19702
#	38875
#	65373
#	91168
#	102178
#	114657
#	124449
#	142289
#	156566
#	172785
#	192185
#
# Disc length: 2742 seconds
#
# Revision: 0
# Processed by: cddbd v1.5.2PL0 Copyright (c) Steve Scherf et al.
# Submitted via: audiograbber 1.83.01
#
DISCID=a50ab40c
DTITLE=ZZZ - Cuba - La Antologia CD 3
DYEAR=1900
DGENRE=Spain
TTITLE0=Omara Portuondo - Lágrimas Negras
TTITLE1=Compay Segundo - Ahora Me Da Pena
TTITLE2=Chucho valdés - habanera Sola
TTITLE3=Buena vista Social club - Mi Son Cubano
TTITLE4=Vicentico valdés - Los Aretes De La Luna
TTITLE5=Celia Cruz - Nostalgia Habanera
TTITLE6=Pérez Prado - Silbando Mambo
TTITLE7=La sonora Matancera - Sabrosito Así
TTITLE8=Afro Cuban all Stars - Después De Esta Noche
TTITLE9=Omara Purtuondo - Mucho Corazón
TTITLE10=Compay Segundo - Sabroso
TTITLE11=celia Cruz - De Cuba A Mexico
EXTD=
EXTT0=
EXTT1=
EXTT2=
EXTT3=
EXTT4=
EXTT5=
EXTT6=
EXTT7=
EXTT8=
EXTT9=
EXTT10=
EXTT11=
PLAYORDER=
